<?xml version="1.0" encoding="UTF-8"?>
<svg version="1.1" xmlns="http://www.w3.org/2000/svg" width="2160" height="2160">
<path d="M0 0 C3.15959038 1.72759178 6.08700697 3.75623248 9.04296875 5.80859375 C9.91508499 6.4016481 10.78720123 6.99470245 11.68574524 7.60572815 C14.52624612 9.54020055 17.3567042 11.48886028 20.1875 13.4375 C22.16067783 14.78434731 24.13464134 16.13004425 26.109375 17.47460938 C30.00443991 20.12749369 33.89661501 22.78452834 37.78662109 25.44482422 C43.99032317 29.68212022 50.23651681 33.85168273 56.5 38 C64.24008886 43.14011266 71.95603945 48.31409638 79.65234375 53.51953125 C98.22118488 66.07674801 116.82722997 78.56706119 135.5625 90.875 C148.44773934 99.34127473 161.30348068 107.84444624 174.0625 116.5 C174.73566254 116.95661011 175.40882507 117.41322021 176.10238647 117.88366699 C179.57873061 120.24245375 183.05392617 122.60292782 186.52880859 124.96386719 C194.96899667 130.69686946 203.41962528 136.41442433 211.875 142.125 C213.22396866 143.03614563 213.22396866 143.03614563 214.60018921 143.96569824 C228.46267222 153.32297096 242.39713841 162.56614706 256.375 171.75 C269.82532312 180.58741557 283.23712994 189.47509766 296.5625 198.5 C297.30641998 199.00378174 298.05033997 199.50756348 298.81680298 200.02661133 C302.6236766 202.60543632 306.42931728 205.18607469 310.234375 207.76757812 C318.83772141 213.60396983 327.44732037 219.43109002 336.0625 225.25 C337.40349258 226.15582825 337.40349258 226.15582825 338.77157593 227.07995605 C352.57677758 236.3993709 366.45458572 245.60374603 380.375 254.75 C393.82530576 263.58744244 407.23712953 272.47509738 420.5625 281.5 C421.30641998 282.00378174 422.05033997 282.50756348 422.81680298 283.02661133 C426.6236766 285.60543632 430.42931728 288.18607469 434.234375 290.76757812 C442.83772141 296.60396983 451.44732037 302.43109002 460.0625 308.25 C460.95649506 308.8538855 461.85049011 309.457771 462.77157593 310.07995605 C476.57677758 319.3993709 490.45458572 328.60374603 504.375 337.75 C517.82530576 346.58744244 531.23712953 355.47509738 544.5625 364.5 C545.30641998 365.00378174 546.05033997 365.50756348 546.81680298 366.02661133 C550.6236766 368.60543632 554.42931728 371.18607469 558.234375 373.76757812 C566.83772141 379.60396983 575.44732037 385.43109002 584.0625 391.25 C584.95649506 391.8538855 585.85049011 392.457771 586.77157593 393.07995605 C600.57677758 402.3993709 614.45458572 411.60374603 628.375 420.75 C641.82530576 429.58744244 655.23712953 438.47509738 668.5625 447.5 C669.30641998 448.00378174 670.05033997 448.50756348 670.81680298 449.02661133 C674.6236766 451.60543632 678.42931728 454.18607469 682.234375 456.76757812 C690.83772141 462.60396983 699.44732037 468.43109002 708.0625 474.25 C708.95649506 474.8538855 709.85049011 475.457771 710.77157593 476.07995605 C724.57677758 485.3993709 738.45458572 494.60374603 752.375 503.75 C765.82530576 512.58744244 779.23712953 521.47509738 792.5625 530.5 C793.30641998 531.00378174 794.05033997 531.50756348 794.81680298 532.02661133 C798.6236766 534.60543632 802.42931728 537.18607469 806.234375 539.76757812 C814.83772141 545.60396983 823.44732037 551.43109002 832.0625 557.25 C832.95649506 557.8538855 833.85049011 558.457771 834.77157593 559.07995605 C849.49165003 569.0169697 864.29835597 578.81738209 879.14248657 588.56784058 C893.60923194 598.0723507 907.99814391 607.68429033 922.31469727 617.41357422 C929.05503283 621.99272959 935.80413419 626.55126209 942.62890625 631.00390625 C943.78224305 631.75933356 944.93556396 632.51478512 946.08886719 633.27026367 C948.17092785 634.62965817 950.25847335 635.98070555 952.35253906 637.3215332 C953.24295898 637.90378662 954.13337891 638.48604004 955.05078125 639.0859375 C955.82075439 639.5814209 956.59072754 640.0769043 957.3840332 640.58740234 C957.91730225 641.05355957 958.45057129 641.5197168 959 642 C959 642.99 959 643.98 959 645 C956.75048828 646.6472168 956.75048828 646.6472168 953.5703125 648.44921875 C952.99785294 648.77846848 952.42539337 649.1077182 951.83558655 649.44694519 C950.59179937 650.1610342 949.34514463 650.87014598 948.09603882 651.57489014 C944.73703473 653.47097713 941.39934651 655.40403016 938.05859375 657.33203125 C937.03434044 657.9211731 937.03434044 657.9211731 935.98939514 658.5222168 C929.64361792 662.1810229 923.40657888 666.00504596 917.1875 669.875 C907.42343841 675.9339388 897.57995373 681.84146563 887.6875 687.6875 C878.08882122 693.36058959 868.5417008 699.09474848 859.08862305 705.00854492 C850.43849337 710.39635932 841.65922454 715.56325482 832.88720703 720.74902344 C823.89410979 726.06758919 814.958369 731.45883678 806.10083008 737.0012207 C797.33587055 742.46114789 788.43864118 747.69573547 779.55029297 752.95117188 C771.74459138 757.56796977 763.96233087 762.20469238 756.3112793 767.07495117 C748.26335757 772.15710689 740.02795553 776.93518244 731.8359375 781.77978516 C720.84566412 788.27116243 720.84566412 788.27116243 710 795 C701.40633653 800.47050336 692.60337965 805.59488762 683.8359375 810.77978516 C672.84566412 817.27116243 672.84566412 817.27116243 662 824 C653.40633653 829.47050336 644.60337965 834.59488762 635.8359375 839.77978516 C624.84566412 846.27116243 624.84566412 846.27116243 614 853 C605.40633653 858.47050336 596.60337965 863.59488762 587.8359375 868.77978516 C576.84566412 875.27116243 576.84566412 875.27116243 566 882 C557.40633653 887.47050336 548.60337965 892.59488762 539.8359375 897.77978516 C528.84566412 904.27116243 528.84566412 904.27116243 518 911 C509.40633653 916.47050336 500.60337965 921.59488762 491.8359375 926.77978516 C480.84566412 933.27116243 480.84566412 933.27116243 470 940 C461.40633653 945.47050336 452.60337965 950.59488762 443.8359375 955.77978516 C432.84566412 962.27116243 432.84566412 962.27116243 422 969 C413.40633653 974.47050336 404.60337965 979.59488762 395.8359375 984.77978516 C384.84570597 991.27123057 384.84570597 991.27123057 374 998 C366.2145626 1002.95416579 358.25490017 1007.61637671 350.3125 1012.3125 C341.32323096 1017.62769765 332.35341077 1022.96008322 323.5 1028.5 C313.9450514 1034.47889576 304.25187158 1040.21489464 294.55029297 1045.95117188 C286.74459138 1050.56796977 278.96233087 1055.20469238 271.3112793 1060.07495117 C263.26335757 1065.15710689 255.02795553 1069.93518244 246.8359375 1074.77978516 C235.84566412 1081.27116243 235.84566412 1081.27116243 225 1088 C216.40633653 1093.47050336 207.60337965 1098.59488762 198.8359375 1103.77978516 C187.84566412 1110.27116243 187.84566412 1110.27116243 177 1117 C168.40633653 1122.47050336 159.60337965 1127.59488762 150.8359375 1132.77978516 C139.84566412 1139.27116243 139.84566412 1139.27116243 129 1146 C120.40633653 1151.47050336 111.60337965 1156.59488762 102.8359375 1161.77978516 C91.84566412 1168.27116243 91.84566412 1168.27116243 81 1175 C72.40799087 1180.46945026 63.60680565 1185.59299436 54.8409729 1190.77676392 C43.69390096 1197.3665118 43.69390096 1197.3665118 32.6875 1204.1875 C30.12927976 1205.79857052 27.56593515 1207.40124591 25 1209 C23.95376465 1209.65226562 22.9075293 1210.30453125 21.82958984 1210.9765625 C18.80425126 1212.85640219 15.76597109 1214.71406727 12.72085571 1216.56167603 C11.50114079 1217.30560432 10.28503998 1218.05549447 9.07284546 1218.81161499 C7.36828682 1219.87342423 5.64917792 1220.91176431 3.9296875 1221.94921875 C2.93179199 1222.56112061 1.93389648 1223.17302246 0.90576172 1223.8034668 C-2.64908693 1225.26728071 -4.33738795 1225.06350504 -8 1224 C-10.5793457 1222.82348633 -10.5793457 1222.82348633 -13.17578125 1221.33203125 C-14.15546875 1220.77580078 -15.13515625 1220.21957031 -16.14453125 1219.64648438 C-17.18996094 1219.04126953 -18.23539063 1218.43605469 -19.3125 1217.8125 C-21.56887501 1216.52710604 -23.82538929 1215.24195651 -26.08203125 1213.95703125 C-27.24440749 1213.29136013 -28.40667965 1212.62550725 -29.56884766 1211.95947266 C-34.85969312 1208.93796094 -40.18020394 1205.97013873 -45.5 1203 C-47.58349732 1201.83362622 -49.66683018 1200.66695861 -51.75 1199.5 C-52.78125 1198.9225 -53.8125 1198.345 -54.875 1197.75 C-64.25000003 1192.49999998 -64.25000003 1192.49999998 -67.37451172 1190.75024414 C-69.45943936 1189.58270421 -71.54440034 1188.41522381 -73.62939453 1187.24780273 C-78.81360899 1184.34498248 -83.99725417 1181.44115533 -89.1796875 1178.53515625 C-99.98203312 1172.47939914 -110.79513013 1166.44391126 -121.625 1160.4375 C-130.874503 1155.30700891 -140.09650117 1150.13095932 -149.29736328 1144.91381836 C-156.67589524 1140.73528347 -164.08360346 1136.61089854 -171.5 1132.5 C-179.85408659 1127.86934114 -188.19114561 1123.21134814 -196.5 1118.5 C-205.90707649 1113.16680908 -215.35149321 1107.90322888 -224.80810547 1102.65844727 C-235.52472941 1096.71367618 -246.21800966 1090.72776111 -256.90722656 1084.73388672 C-262.10370745 1081.8206086 -267.30194696 1078.91047173 -272.5 1076 C-274.58334166 1074.8333482 -276.66667499 1073.66668154 -278.75 1072.5 C-279.78125 1071.9225 -280.8125 1071.345 -281.875 1070.75 C-366.25000003 1023.49999998 -366.25000003 1023.49999998 -369.37451172 1021.75024414 C-371.45943936 1020.58270421 -373.54440034 1019.41522381 -375.62939453 1018.24780273 C-380.81360899 1015.34498248 -385.99725417 1012.44115533 -391.1796875 1009.53515625 C-401.98203312 1003.47939914 -412.79513013 997.44391126 -423.625 991.4375 C-432.874503 986.30700891 -442.09650117 981.13095932 -451.29736328 975.91381836 C-458.67589524 971.73528347 -466.08360346 967.61089854 -473.5 963.5 C-481.85408659 958.86934114 -490.19114561 954.21134814 -498.5 949.5 C-507.90707649 944.16680908 -517.35149321 938.90322888 -526.80810547 933.65844727 C-537.52472941 927.71367618 -548.21800966 921.72776111 -558.90722656 915.73388672 C-564.10370745 912.8206086 -569.30194696 909.91047173 -574.5 907 C-576.58334166 905.8333482 -578.66667499 904.66668154 -580.75 903.5 C-581.78125 902.9225 -582.8125 902.345 -583.875 901.75 C-693.25 840.5 -693.25 840.5 -696.37451172 838.75024414 C-698.45943936 837.58270421 -700.54440034 836.41522381 -702.62939453 835.24780273 C-707.81360899 832.34498248 -712.99725417 829.44115533 -718.1796875 826.53515625 C-728.98203312 820.47939914 -739.79513013 814.44391126 -750.625 808.4375 C-759.874503 803.30700891 -769.09650117 798.13095932 -778.29736328 792.91381836 C-785.67589524 788.73528347 -793.08360346 784.61089854 -800.5 780.5 C-808.85408659 775.86934114 -817.19114561 771.21134814 -825.5 766.5 C-834.90707649 761.16680908 -844.35149321 755.90322888 -853.80810547 750.65844727 C-864.52472941 744.71367618 -875.21800966 738.72776111 -885.90722656 732.73388672 C-891.10370745 729.8206086 -896.30194696 726.91047173 -901.5 724 C-903.58334166 722.8333482 -905.66667499 721.66668154 -907.75 720.5 C-908.78125 719.9225 -909.8125 719.345 -910.875 718.75 C-939 703 -967.125 687.25 -995.25 671.5 C-996.28294189 670.92161377 -997.31588379 670.34322754 -998.38012695 669.74731445 C-1000.44658177 668.58997686 -1002.5128281 667.43226692 -1004.57885742 666.27416992 C-1009.45737485 663.54014897 -1014.33791873 660.80997447 -1019.22598267 658.0930481 C-1020.96757022 657.12479574 -1022.70839924 656.15517941 -1024.44921875 655.18554688 C-1026.64190525 653.96441659 -1028.83585728 652.7455551 -1031.03125 651.52929688 C-1032.01738281 650.97951172 -1033.00351563 650.42972656 -1034.01953125 649.86328125 C-1034.88682861 649.38157471 -1035.75412598 648.89986816 -1036.64770508 648.40356445 C-1038.90887371 647.05437312 -1040.999079 645.71338082 -1043 644 C-1043 643.34 -1043 642.68 -1043 642 C-1040.9465332 640.51049805 -1040.9465332 640.51049805 -1038.05078125 638.76171875 C-1036.98585449 638.11323975 -1035.92092773 637.46476074 -1034.82373047 636.79663086 C-1033.65334493 636.09354626 -1032.48293414 635.39050368 -1031.3125 634.6875 C-1030.11556705 633.96116009 -1028.91911917 633.23402028 -1027.72314453 632.50610352 C-1025.2974843 631.03045883 -1022.86995428 629.55797088 -1020.44091797 628.08789062 C-1015.73307471 625.23544077 -1011.05243287 622.33947706 -1006.375 619.4375 C-1005.11333008 618.65632813 -1005.11333008 618.65632813 -1003.82617188 617.859375 C-997.30935682 613.82162171 -990.81024274 609.75584941 -984.3125 605.6875 C-974.80852355 599.73695048 -965.26770915 593.84849535 -955.7121582 587.98120117 C-948.45379724 583.52055333 -941.21911617 579.02385248 -934 574.5 C-924.60078369 568.60998978 -915.16346943 562.78445807 -905.7109375 556.98046875 C-898.4529985 552.52004085 -891.21871404 548.02360049 -884 543.5 C-874.60078369 537.60998978 -865.16346943 531.78445807 -855.7109375 525.98046875 C-848.4529985 521.52004085 -841.21871404 517.02360049 -834 512.5 C-824.60078369 506.60998978 -815.16346943 500.78445807 -805.7109375 494.98046875 C-798.4529985 490.52004085 -791.21871404 486.02360049 -784 481.5 C-774.60078369 475.60998978 -765.16346943 469.78445807 -755.7109375 463.98046875 C-748.4529985 459.52004085 -741.21871404 455.02360049 -734 450.5 C-724.60078369 444.60998978 -715.16346943 438.78445807 -705.7109375 432.98046875 C-698.4529985 428.52004085 -691.21871404 424.02360049 -684 419.5 C-674.60078369 413.60998978 -665.16346943 407.78445807 -655.7109375 401.98046875 C-648.4529985 397.52004085 -641.21871404 393.02360049 -634 388.5 C-624.60078369 382.60998978 -615.16346943 376.78445807 -605.7109375 370.98046875 C-598.4529985 366.52004085 -591.21871404 362.02360049 -584 357.5 C-574.60078369 351.60998978 -565.16346943 345.78445807 -555.7109375 339.98046875 C-548.4529985 335.52004085 -541.21871404 331.02360049 -534 326.5 C-524.60078369 320.60998978 -515.16346943 314.78445807 -505.7109375 308.98046875 C-498.4529985 304.52004085 -491.21871404 300.02360049 -484 295.5 C-474.60078369 289.60998978 -465.16346943 283.78445807 -455.7109375 277.98046875 C-448.4529985 273.52004085 -441.21871404 269.02360049 -434 264.5 C-424.60078369 258.60998978 -415.16346943 252.78445807 -405.7109375 246.98046875 C-398.4529985 242.52004085 -391.21871404 238.02360049 -384 233.5 C-374.60078369 227.60998978 -365.16346943 221.78445807 -355.7109375 215.98046875 C-348.4529985 211.52004085 -341.21871404 207.02360049 -334 202.5 C-324.60078369 196.60998978 -315.16346943 190.78445807 -305.7109375 184.98046875 C-298.4529985 180.52004085 -291.21871404 176.02360049 -284 171.5 C-274.60078369 165.60998978 -265.16346943 159.78445807 -255.7109375 153.98046875 C-248.4529985 149.52004085 -241.21871404 145.02360049 -234 140.5 C-224.60078369 134.60998978 -215.16346943 128.78445807 -205.7109375 122.98046875 C-198.4529985 118.52004085 -191.21871404 114.02360049 -184 109.5 C-174.60078369 103.60998978 -165.16346943 97.78445807 -155.7109375 91.98046875 C-148.4529985 87.52004085 -141.21871404 83.02360049 -134 78.5 C-124.60078369 72.60998978 -115.16346943 66.78445807 -105.7109375 60.98046875 C-98.4529985 56.52004085 -91.21871404 52.02360049 -84 47.5 C-75.69101927 42.2931849 -67.35609963 37.13085125 -59 32 C-50.43730297 26.74157494 -41.8950589 21.45223619 -33.375 16.125 C-31.8902417 15.20074219 -31.8902417 15.20074219 -30.37548828 14.2578125 C-25.93492541 11.48889441 -21.51700253 8.69794885 -17.15625 5.8046875 C-16.05917725 5.08708252 -16.05917725 5.08708252 -14.93994141 4.35498047 C-13.61497253 3.48555776 -12.298595 2.60281462 -10.99365234 1.70361328 C-6.80854174 -1.02306737 -4.76198675 -1.36051825 0 0 Z " fill="#353535" transform="translate(1123,469)"/>
<path d="M0 0 C0.25737641 14.46433224 0.4504036 28.92830774 0.56993389 43.39446259 C0.62657041 50.11206263 0.70372538 56.82823716 0.82983398 63.54492188 C0.9494857 70.02896712 1.01515292 76.51153318 1.04364967 82.99659729 C1.06395247 85.46870718 1.10360226 87.94073733 1.16303062 90.41221619 C1.60851357 109.70879319 1.60851357 109.70879319 -2.19165039 115.12184143 C-5.04079305 117.24096925 -7.73985601 118.61253854 -11 120 C-12.59502691 121.01824708 -14.1713076 122.06666287 -15.72412109 123.14819336 C-17.28037047 124.15245895 -18.83852897 125.15377134 -20.3984375 126.15234375 C-22.15103675 127.28319469 -23.90330535 128.41455819 -25.65527344 129.54638672 C-26.54130249 130.11798523 -27.42733154 130.68958374 -28.34020996 131.27850342 C-32.60797655 134.04073107 -36.85562185 136.83328428 -41.1015625 139.62890625 C-41.94816437 140.18624954 -42.79476624 140.74359283 -43.66702271 141.31782532 C-46.32015281 143.06533656 -48.97262251 144.8138467 -51.625 146.5625 C-52.55644836 147.17618439 -53.48789673 147.78986877 -54.4475708 148.42214966 C-69.69715246 158.47080474 -84.89529331 168.59482164 -100.07785034 178.74435425 C-110.18802469 185.49992822 -120.32351523 192.19070415 -130.62402344 198.65380859 C-140.41523704 204.83128394 -150.01050178 211.30472801 -159.63323975 217.73986816 C-172.99100522 226.67249782 -186.38685022 235.54474476 -199.8125 244.375 C-214.70610163 254.17082043 -229.5557408 264.02960512 -244.375 273.9375 C-255.38454396 281.29770855 -266.40539511 288.61462517 -277.62402344 295.65380859 C-287.41523704 301.83128394 -297.01050178 308.30472801 -306.63323975 314.73986816 C-319.9910067 323.67249881 -333.38696088 332.54457483 -346.8125 341.375 C-363.87626264 352.599315 -380.88873599 363.89840053 -397.86450195 375.25537109 C-399.13528091 376.10467194 -399.13528091 376.10467194 -400.43173218 376.97113037 C-402.006258 378.02351945 -403.58013806 379.07687563 -405.15322876 380.13140869 C-415.43216687 387 -415.43216687 387 -418 387 C-418 387.66 -418 388.32 -418 389 C-417.36320313 389.2371875 -416.72640625 389.474375 -416.0703125 389.71875 C-411.90680602 391.45619291 -407.90458788 393.47417511 -403.875 395.5 C-402.99046143 395.94359863 -402.10592285 396.38719727 -401.19458008 396.84423828 C-393.73973361 400.59784795 -386.34832 404.46477409 -378.97265625 408.37109375 C-372.57544998 411.7590583 -366.15740798 415.10724915 -359.72998047 418.4375 C-354.79393709 420.99908612 -349.88533938 423.59864564 -345.01171875 426.27734375 C-343.57481689 427.05766968 -343.57481689 427.05766968 -342.10888672 427.85375977 C-340.28174967 428.84772615 -338.46136773 429.85423974 -336.64892578 430.87475586 C-335.83278809 431.3156958 -335.01665039 431.75663574 -334.17578125 432.2109375 C-333.46333252 432.60587402 -332.75088379 433.00081055 -332.0168457 433.40771484 C-329.99857585 434.21397463 -329.99857585 434.21397463 -328.04321289 433.30981445 C-327.03182251 432.6614563 -327.03182251 432.6614563 -326 432 C-325.2383252 431.51893799 -324.47665039 431.03787598 -323.69189453 430.54223633 C-322.84739746 429.97786865 -322.00290039 429.41350098 -321.1328125 428.83203125 C-320.17640869 428.19402588 -319.22000488 427.55602051 -318.23461914 426.89868164 C-317.20844482 426.2102417 -316.18227051 425.52180176 -315.125 424.8125 C-314.05435303 424.09634521 -312.98370605 423.38019043 -311.88061523 422.64233398 C-302.1686851 416.13551965 -292.50871195 409.55348702 -282.85986328 402.95361328 C-277.74593605 399.46021686 -272.62245259 395.98087773 -267.5 392.5 C-259.66256754 387.17266172 -251.82862098 381.84027846 -244 376.5 C-235.11136018 370.43663176 -226.21494801 364.38476221 -217.31640625 358.3359375 C-210.54056901 353.72937324 -203.76860163 349.11718834 -197 344.5 C-188.11136018 338.43663176 -179.21494801 332.38476221 -170.31640625 326.3359375 C-163.54056901 321.72937324 -156.76860163 317.11718834 -150 312.5 C-141.11136018 306.43663176 -132.21494801 300.38476221 -123.31640625 294.3359375 C-116.54056901 289.72937324 -109.76860163 285.11718834 -103 280.5 C-94.11136018 274.43663176 -85.21494801 268.38476221 -76.31640625 262.3359375 C-68.64684023 257.12177024 -60.98288103 251.89944227 -53.32177734 246.67285156 C-48.42823075 243.33509763 -43.53215177 240.00112152 -38.6328125 236.671875 C-37.55717041 235.940896 -36.48152832 235.20991699 -35.37329102 234.45678711 C-33.2309199 233.00132732 -31.08818695 231.54639996 -28.94506836 230.09204102 C-24.25941152 226.90954673 -19.58106059 223.71854177 -14.93359375 220.48046875 C-14.18513184 219.96000977 -13.43666992 219.43955078 -12.66552734 218.90332031 C-11.30490401 217.95495921 -9.94696253 217.00273376 -8.59228516 216.04589844 C-4.22056747 213 -4.22056747 213 -2 213 C-0.96355951 230.09616134 -0.19249787 247.18233767 0.27973557 264.30288982 C0.50506633 272.25742953 0.81178744 280.19210917 1.31933594 288.1340332 C4.62055319 340.84210872 4.62055319 340.84210872 -6.11425781 353.60675049 C-14.97611166 362.37367124 -25.96277217 367.98907309 -37.27711105 372.95101833 C-47.33667203 377.37208905 -56.0632834 383.39183653 -64.99423981 389.73496056 C-69.35636992 392.80761361 -73.79071184 395.77349898 -78.21875 398.75 C-79.21519531 399.42289063 -80.21164062 400.09578125 -81.23828125 400.7890625 C-92.02202309 408.04975767 -102.89351686 415.17693872 -113.76025391 422.3125 C-128.29527391 431.86018966 -142.73848719 441.53562672 -157.13796997 451.28631592 C-173.39971503 462.29442307 -189.77205118 473.12898833 -206.19140625 483.90039062 C-207.0885585 484.48944183 -207.98571075 485.07849304 -208.91004944 485.68539429 C-210.58454616 486.78449426 -212.25982028 487.88241115 -213.9360199 488.97891235 C-214.6795723 489.46685272 -215.42312469 489.95479309 -216.18920898 490.45751953 C-216.832285 490.87856964 -217.47536102 491.29961975 -218.13792419 491.73342896 C-219.49828604 492.65873765 -220.81907004 493.64299444 -222.11317444 494.65890503 C-224 496 -224 496 -226 496 C-226 496.66 -226 497.32 -226 498 C-225.12110107 498.27457031 -224.24220215 498.54914063 -223.33666992 498.83203125 C-220.24621579 499.91381456 -217.50693695 501.16630553 -214.61328125 502.6875 C-213.60249512 503.21609619 -212.59170898 503.74469238 -211.55029297 504.28930664 C-209.94758545 505.13609985 -209.94758545 505.13609985 -208.3125 506 C-207.19762207 506.58450928 -206.08274414 507.16901855 -204.93408203 507.77124023 C-201.62039309 509.50977519 -198.30985136 511.25417248 -195 513 C-193.31393088 513.88696363 -191.62774606 514.77370738 -189.94140625 515.66015625 C-187.6691588 516.8550801 -185.39730953 518.05072869 -183.12670898 519.2487793 C-178.76800508 521.54815759 -174.40279874 523.834499 -170.03125 526.109375 C-168.49718506 526.90782837 -168.49718506 526.90782837 -166.93212891 527.72241211 C-164.95580249 528.75034806 -162.97895006 529.77727357 -161.00146484 530.80297852 C-160.09090332 531.27662842 -159.1803418 531.75027832 -158.2421875 532.23828125 C-157.36143555 532.69412598 -156.48068359 533.1499707 -155.57324219 533.61962891 C-153.85864037 534.53939728 -152.16559913 535.50054285 -150.49707031 536.50146484 C-149.71686523 536.96891113 -148.93666016 537.43635742 -148.1328125 537.91796875 C-147.4536377 538.34231201 -146.77446289 538.76665527 -146.07470703 539.20385742 C-143.30951908 540.26496332 -141.80553341 539.86450692 -139 539 C-136.9130503 538.03189388 -136.9130503 538.03189388 -134.91015625 536.76953125 C-133.7514502 536.07089966 -133.7514502 536.07089966 -132.56933594 535.3581543 C-131.74208008 534.84808838 -130.91482422 534.33802246 -130.0625 533.8125 C-129.1849707 533.27858643 -128.30744141 532.74467285 -127.40332031 532.19458008 C-119.09813101 527.11665504 -110.89386174 521.88045658 -102.6953125 516.6328125 C-96.86280789 512.90363598 -90.99814358 509.22725385 -85.125 505.5625 C-84.12758789 504.94012451 -83.13017578 504.31774902 -82.10253906 503.67651367 C-80.07924663 502.41448094 -78.05580884 501.15268121 -76.03222656 499.89111328 C-71.01909469 496.76456582 -66.00968154 493.63207185 -61 490.5 C-54.97842442 486.73528817 -48.95605564 482.9718804 -42.9296875 479.21484375 C-40.91140681 477.95581176 -38.89317732 476.69669768 -36.875 475.4375 C-35.8957959 474.82704834 -34.9165918 474.21659668 -33.90771484 473.58764648 C-28.80958029 470.40331339 -23.72935724 467.19388011 -18.671875 463.9453125 C-17.14844482 462.96800171 -17.14844482 462.96800171 -15.59423828 461.97094727 C-13.65248578 460.72290588 -11.71324507 459.47094565 -9.77685547 458.21459961 C-8.91463379 457.6603833 -8.05241211 457.10616699 -7.1640625 456.53515625 C-6.40561035 456.044104 -5.6471582 455.55305176 -4.86572266 455.04711914 C-3 454 -3 454 -1 454 C-1 544.75 -1 635.5 -1 729 C-5.36846656 727.54384448 -8.56970274 726.28703972 -12.47265625 724.0859375 C-13.52195312 723.498125 -14.57125 722.9103125 -15.65234375 722.3046875 C-16.77769531 721.66789062 -17.90304687 721.03109375 -19.0625 720.375 C-20.26007474 719.70251572 -21.45799887 719.03065332 -22.65625 718.359375 C-24.5313172 717.30890625 -26.40619109 716.25811083 -28.28005981 715.20550537 C-34.39863296 711.76936892 -40.54227757 708.37950017 -46.69015503 704.99615479 C-57.75409214 698.9064653 -68.79913248 692.78326941 -79.8359375 686.64453125 C-88.04786791 682.07915735 -96.27142476 677.53526792 -104.5 673 C-119.46481201 664.75137008 -134.40108761 656.45176762 -149.33398438 648.14550781 C-162.65412965 640.73719998 -175.98400453 633.34716501 -189.3324585 625.99002075 C-199.17879604 620.5627363 -209.01046373 615.10951959 -218.8359375 609.64453125 C-227.04786733 605.07915767 -235.27137173 600.53517099 -243.5 596 C-253.95739601 590.23645383 -264.40092809 584.44854703 -274.8359375 578.64453125 C-283.04786733 574.07915767 -291.27137173 569.53517099 -299.5 565 C-309.95739601 559.23645383 -320.40092809 553.44854703 -330.8359375 547.64453125 C-339.04786791 543.07915735 -347.27142476 538.53526792 -355.5 534 C-370.46481201 525.75137008 -385.40108761 517.45176762 -400.33398438 509.14550781 C-413.65412965 501.73719998 -426.98400453 494.34716501 -440.3324585 486.99002075 C-450.17879604 481.5627363 -460.01046373 476.10951959 -469.8359375 470.64453125 C-478.04786733 466.07915767 -486.27137173 461.53517099 -494.5 457 C-504.95739601 451.23645383 -515.40092809 445.44854703 -525.8359375 439.64453125 C-534.04786848 435.07915703 -542.27147782 430.53536491 -550.5 426 C-572.71529115 413.75364097 -594.87665759 401.41164364 -617 389 C-614.90718218 386.77415725 -612.8092763 385.11728755 -610.21875 383.50390625 C-609.46956299 383.03428467 -608.72037598 382.56466309 -607.94848633 382.08081055 C-607.14048584 381.57976807 -606.33248535 381.07872559 -605.5 380.5625 C-603.76424659 379.4766845 -602.02857159 378.39074366 -600.29296875 377.3046875 C-599.40786621 376.75264648 -598.52276367 376.20060547 -597.61083984 375.63183594 C-594.4307413 373.6442 -591.26171315 371.63946756 -588.09375 369.63256836 C-579.05754989 363.90854562 -569.98804614 358.23838298 -560.91455078 352.57373047 C-552.35626365 347.22839607 -543.82068397 341.84790557 -535.29443359 336.45166016 C-530.5692617 333.46210152 -525.8406762 330.47794384 -521.11279297 327.49267578 C-517.21605486 325.03195635 -513.32002812 322.57012917 -509.42578125 320.10546875 C-499.60928182 313.89503034 -489.76802588 307.72533029 -479.91455078 301.57373047 C-470.58864874 295.7489592 -461.29054283 289.88094955 -452 284 C-440.66039948 276.82198902 -429.29868526 269.68093264 -417.91455078 262.57373047 C-409.35626365 257.22839607 -400.82068397 251.84790557 -392.29443359 246.45166016 C-387.5692617 243.46210152 -382.8406762 240.47794384 -378.11279297 237.49267578 C-374.21605486 235.03195635 -370.32002812 232.57012917 -366.42578125 230.10546875 C-356.60928182 223.89503034 -346.76802588 217.72533029 -336.91455078 211.57373047 C-327.58864874 205.7489592 -318.29054283 199.88094955 -309 194 C-297.66039948 186.82198902 -286.29868526 179.68093264 -274.91455078 172.57373047 C-266.35626365 167.22839607 -257.82068397 161.84790557 -249.29443359 156.45166016 C-244.5692617 153.46210152 -239.8406762 150.47794384 -235.11279297 147.49267578 C-231.21605486 145.03195635 -227.32002812 142.57012917 -223.42578125 140.10546875 C-213.60928182 133.89503034 -203.76802588 127.72533029 -193.91455078 121.57373047 C-185.35626365 116.22839607 -176.82068397 110.84790557 -168.29443359 105.45166016 C-163.5692617 102.46210152 -158.8406762 99.47794384 -154.11279297 96.49267578 C-150.21605486 94.03195635 -146.32002812 91.57012917 -142.42578125 89.10546875 C-132.60928182 82.89503034 -122.76802588 76.72533029 -112.91455078 70.57373047 C-103.58864874 64.7489592 -94.29054283 58.88094955 -85 53 C-73.66039948 45.82198902 -62.29868526 38.68093264 -50.91455078 31.57373047 C-42.37970157 26.24303492 -33.8675409 20.87723683 -25.36474609 15.49560547 C-22.8133363 13.88194282 -20.2603498 12.27079684 -17.70703125 10.66015625 C-16.83602783 10.11061279 -15.96502441 9.56106934 -15.06762695 8.99487305 C-13.39574081 7.94010795 -11.72371042 6.88557144 -10.05151367 5.83129883 C-9.30232666 5.35845459 -8.55313965 4.88561035 -7.78125 4.3984375 C-7.12189453 3.98255371 -6.46253906 3.56666992 -5.78320312 3.13818359 C-0.86658087 0 -0.86658087 0 0 0 Z " fill="#FEFEFE" transform="translate(1047,716)"/>
<path d="M0 0 C3.56720874 1.38394288 6.6200008 2.90777378 9.81640625 5.01953125 C10.73510498 5.62297363 11.65380371 6.22641602 12.6003418 6.84814453 C13.577854 7.49638184 14.55536621 8.14461914 15.5625 8.8125 C17.64310587 10.18117703 19.72383724 11.54966331 21.8046875 12.91796875 C23.36848145 13.94929932 23.36848145 13.94929932 24.96386719 15.00146484 C29.35950272 17.894893 33.77264825 20.76101435 38.1875 23.625 C39.82688588 24.69000725 41.46620891 25.75511126 43.10546875 26.8203125 C43.91161621 27.34399414 44.71776367 27.86767578 45.54833984 28.40722656 C49.69939383 31.10404754 53.84965238 33.80209214 58 36.5 C59.66666295 37.58333905 61.33332961 38.66667239 63 39.75 C86.33333333 54.91666667 109.66666667 70.08333333 133 85.25 C133.8247583 85.78608887 134.6495166 86.32217773 135.49926758 86.87451172 C137.16839052 87.95944978 138.83749856 89.04441077 140.5065918 90.12939453 C144.63555642 92.81336238 148.7647669 95.49695031 152.89453125 98.1796875 C162.74506476 104.57939717 172.58809791 110.9904827 182.42626953 117.40917969 C191.1272293 123.08505363 199.83656623 128.74796927 208.54833984 134.40722656 C212.69939383 137.10404754 216.84965238 139.80209214 221 142.5 C222.66666295 143.58333905 224.33332961 144.66667239 226 145.75 C276 178.25 326 210.75 376 243.25 C376.8247583 243.78608887 377.6495166 244.32217773 378.49926758 244.87451172 C380.16839052 245.95944978 381.83749856 247.04441077 383.5065918 248.12939453 C387.63555642 250.81336238 391.7647669 253.49695031 395.89453125 256.1796875 C405.74506476 262.57939717 415.58809791 268.9904827 425.42626953 275.40917969 C434.1272293 281.08505363 442.83656623 286.74796927 451.54833984 292.40722656 C455.69939383 295.10404754 459.84965238 297.80209214 464 300.5 C465.66666295 301.58333905 467.33332961 302.66667239 469 303.75 C492.33333333 318.91666667 515.66666667 334.08333333 539 349.25 C539.82516113 349.78633057 540.65032227 350.32266113 541.50048828 350.87524414 C543.16561661 351.95762635 544.83065582 353.04014569 546.49560547 354.12280273 C550.68508511 356.84682485 554.87613074 359.56837865 559.0703125 362.28515625 C570.10522013 369.43745054 581.07677386 376.67827233 592 384 C588.5085994 386.3276004 584.84604623 387.83251084 580.98828125 389.4296875 C580.16956543 389.77161133 579.35084961 390.11353516 578.50732422 390.46582031 C575.77696383 391.60523197 573.04473895 392.74010122 570.3125 393.875 C568.37577727 394.68217157 566.43917472 395.48963155 564.50268555 396.29736328 C560.41399969 398.00213505 556.32451781 399.70497681 552.234375 401.40625 C546.20695724 403.91337033 540.18138485 406.42489923 534.15625 408.9375 C526.17271473 412.26634126 518.18829734 415.59305641 510.203125 418.91796875 C502.04606091 422.31445547 493.88982693 425.71292535 485.734375 429.11328125 C422.95610995 455.28679059 422.95610995 455.28679059 395.5 466.5625 C394.61554199 466.92690186 393.73108398 467.29130371 392.81982422 467.66674805 C387.1184245 470 387.1184245 470 386 470 C386.02065647 469.42722321 386.04131294 468.85444641 386.06259537 468.26431274 C386.55791548 454.25693255 386.8944828 440.25300902 387.05958939 426.23773193 C387.14318855 419.45848379 387.27900365 412.6880227 387.53955078 405.91308594 C390.2970734 377.77902996 390.2970734 377.77902996 382.34533691 352.04351807 C376.34734467 346.00999839 368.68572835 343.37285788 360.61697388 341.14004517 C354.67499917 339.26717581 349.56574957 336.06412204 344.25 332.875 C342.21436707 331.73085583 340.17571243 330.59205516 338.1328125 329.4609375 C330.77702154 325.33083208 323.49519025 321.0754222 316.22753906 316.79248047 C315.3094043 316.25252441 314.39126953 315.71256836 313.4453125 315.15625 C312.65656738 314.69025391 311.86782227 314.22425781 311.05517578 313.74414062 C308.15793946 312.09016458 305.23886504 310.48639203 302.30905151 308.89099121 C301.3156822 308.34985435 300.32231289 307.8087175 299.29884148 307.25118256 C298.16091495 306.63184719 298.16091495 306.63184719 297 306 C297.01030746 306.75123075 297.02061493 307.50246151 297.03123474 308.27645683 C297.28737683 326.9705549 297.53769254 345.66472378 297.78230286 364.35897636 C297.90074391 373.40113898 298.02091646 382.44327146 298.14550781 391.48535156 C298.1814522 394.10911658 298.21733391 396.73288245 298.25317192 399.35664892 C298.27712867 401.10542549 298.30123411 402.85420002 298.32548714 404.60297251 C298.4587452 414.24062314 298.57572151 423.87800632 298.65112305 433.51629639 C298.67963513 437.02226212 298.70886358 440.52822145 298.73828125 444.03417969 C298.74522444 444.89810255 298.75216763 445.7620254 298.75932121 446.65212774 C298.85659111 458.13132533 299.12398639 469.59249351 299.54502869 481.06427574 C299.76353943 487.0888522 299.91713445 493.1145543 300.05201435 499.14153445 C300.14675483 503.19335519 300.27577389 507.23736432 300.49075317 511.28472519 C301.74124225 535.27895545 301.74124225 535.27895545 297.18441963 541.46452332 C292.76853961 545.48155667 287.86297745 547.91240015 282.33157825 550.04904842 C278.92294231 551.43928601 276.0198187 553.3279791 272.93359375 555.328125 C270.76916567 556.63696662 268.60379476 557.94425029 266.4375 559.25 C264.02527444 560.70836934 261.61407693 562.16843251 259.203125 563.62890625 C258.60219528 563.9928096 258.00126556 564.35671295 257.38212585 564.73164368 C250.05502029 569.17265628 242.76452723 573.67286886 235.47216797 578.1706543 C227.27638719 583.22277043 219.05812701 588.23693356 210.82104492 593.22143555 C205.22445937 596.61596655 199.70464423 600.10622243 194.23022461 603.69506836 C192 605 192 605 190 605 C190 485.21 190 365.42 190 242 C188.35 241.34 186.7 240.68 185 240 C183.28065956 239.10624743 181.57690958 238.18209867 179.88671875 237.234375 C178.89865234 236.68136719 177.91058594 236.12835937 176.89257812 235.55859375 C175.30606445 234.66333984 175.30606445 234.66333984 173.6875 233.75 C172.57955078 233.12738281 171.47160156 232.50476563 170.33007812 231.86328125 C161.85023962 227.08224922 153.43743982 222.19102373 145.04174805 217.26391602 C134.92066187 211.33790104 124.68543997 205.62175345 114.4375 199.91886902 C110.49122343 197.71599255 106.55173151 195.50125194 102.61328125 193.28442383 C101.51046814 192.66387997 101.51046814 192.66387997 100.38537598 192.03079987 C98.59018914 191.02064254 96.79508592 190.01033664 95 189 C95.00423194 189.6958374 95.00846388 190.39167479 95.01282406 191.10859817 C95.2678179 233.05261644 95.51857243 274.9966584 95.76436454 316.94073164 C95.79437838 322.06196905 95.82442507 327.18320626 95.85449219 332.30444336 C95.86047342 333.32330171 95.86645465 334.34216007 95.87261713 335.39189292 C95.95588165 349.56388203 96.04090992 363.73585954 96.12741292 377.90782924 C96.14549659 380.87584396 96.16348656 383.84385924 96.18144131 386.81187475 C96.18735651 387.7894221 96.1932717 388.76696945 96.19936615 389.77413944 C96.21129364 391.74528926 96.22321819 393.7164391 96.23513979 395.68758895 C96.27089229 401.58496353 96.30744424 407.48233258 96.3445012 413.3796991 C96.4662737 432.82988024 96.57268012 452.2798498 96.62555468 471.73035218 C96.64666693 479.35254328 96.67147777 486.97472297 96.69747472 494.59689882 C96.7038343 496.47391063 96.71001777 498.35092303 96.71602321 500.227936 C96.79556803 524.69743585 97.12788815 549.14147181 97.81947774 573.60134612 C97.97167163 579.05743834 98.09974527 584.51364497 98.20973206 589.97074604 C98.22483041 590.71878589 98.23992876 591.46682573 98.25548464 592.23753345 C98.32893974 595.924841 98.39901911 599.61219422 98.46651936 603.2996152 C98.59881533 610.27254282 98.7820674 617.23683632 99.0942688 624.20420647 C100.9024105 665.61791416 100.9024105 665.61791416 94.47201538 673.6752739 C88.6595083 679.57679113 81.37334232 682.34372445 73.56607056 684.75533867 C67.49378326 686.87474182 62.27820872 690.26966426 56.8125 693.625 C54.66507271 694.86824324 52.51445692 696.10601082 50.359375 697.3359375 C44.07915407 700.94908359 37.81864121 704.59535788 31.5625 708.25 C30.5830542 708.82137695 29.6036084 709.39275391 28.59448242 709.98144531 C23.84156079 712.75434835 19.09203366 715.53281479 14.34765625 718.3203125 C12.60684031 719.33866044 10.86595842 720.35689566 9.125 721.375 C8.32779541 721.84583008 7.53059082 722.31666016 6.70922852 722.80175781 C1.22661448 726 1.22661448 726 -1 726 C-1.01720341 668.38723827 -1.03311206 610.77447627 -1.04234314 553.16171265 C-1.0424812 552.30230942 -1.04261925 551.44290619 -1.04276149 550.55746044 C-1.04575782 531.85827944 -1.04852751 513.15909841 -1.05106533 494.45991734 C-1.05231213 485.28333682 -1.05360876 476.1067563 -1.05493164 466.93017578 C-1.0550624 466.01723377 -1.05519316 465.10429176 -1.05532788 464.16368484 C-1.05955197 434.83347863 -1.06703446 405.50327441 -1.07629722 376.17306939 C-1.08583726 345.90824862 -1.09190983 315.64342895 -1.09391499 285.37860671 C-1.09420294 281.0556818 -1.09452857 276.7327569 -1.09487724 272.409832 C-1.09494467 271.55942554 -1.09501209 270.70901908 -1.09508156 269.83284273 C-1.09617009 257.23151307 -1.10014121 244.63018658 -1.10573006 232.02885818 C-1.11400964 213.0018226 -1.11771404 193.9747911 -1.11352539 174.94775391 C-1.113369 174.19679014 -1.11321261 173.44582637 -1.11305148 172.67210612 C-1.10002333 115.1104546 -0.70590999 57.55772111 0 0 Z " fill="#FEFEFE" transform="translate(1140,718)"/>
</svg>
